<svg width="131" height="130" viewBox="0 0 131 130" fill="none" xmlns="http://www.w3.org/2000/svg">
<path d="M97.7962 39.8823L95.9725 39.3974C96.07 39.0312 96.131 38.6499 96.1536 38.2641C96.2304 36.9701 95.8781 35.7351 95.1616 34.7865C94.4796 33.8838 93.546 33.3537 92.5332 33.294L92.6446 31.4126C94.2185 31.5055 95.6478 32.3009 96.6682 33.6514C97.654 34.9568 98.1403 36.6346 98.0377 38.3747C98.0076 38.886 97.9264 39.393 97.7962 39.8811V39.8823Z" fill="#FBB1B1" stroke="#916E6D" style="fill:#FBB1B1;fill:color(display-p3 0.9843 0.6941 0.6941);fill-opacity:1;stroke:#916E6D;stroke:color(display-p3 0.5686 0.4314 0.4275);stroke-opacity:1;" stroke-width="0.5" stroke-miterlimit="10"/>
<path d="M77.2005 37.5468L75.3767 37.0618C75.4742 36.6956 75.5353 36.3143 75.5579 35.9286C75.6347 34.6345 75.2824 33.3995 74.5659 32.451C73.8839 31.5483 72.9503 31.0181 71.9375 30.9584L72.0489 29.077C73.6228 29.17 75.0521 29.9652 76.0725 31.3158C77.0583 32.6212 77.5446 34.2991 77.442 36.0391C77.4119 36.5505 77.3307 37.0574 77.2005 37.5455V37.5468Z" fill="#FBB1B1" stroke="#916E6D" style="fill:#FBB1B1;fill:color(display-p3 0.9843 0.6941 0.6941);fill-opacity:1;stroke:#916E6D;stroke:color(display-p3 0.5686 0.4314 0.4275);stroke-opacity:1;" stroke-width="0.5" stroke-miterlimit="10"/>
<path d="M55.5882 35.4775L53.7644 34.9926C53.8619 34.6264 53.923 34.245 53.9456 33.8593C54.0224 32.5653 53.6701 31.3303 52.9536 30.3818C52.2716 29.4791 51.338 28.9489 50.3252 28.8892L50.4365 27.0078C52.0105 27.1008 53.4398 27.8961 54.4602 29.2466C55.446 30.552 55.9323 32.2298 55.8297 33.9699C55.7995 34.4812 55.7184 34.9882 55.5882 35.4763V35.4775Z" fill="#FBB1B1" stroke="#916E6D" style="fill:#FBB1B1;fill:color(display-p3 0.9843 0.6941 0.6941);fill-opacity:1;stroke:#916E6D;stroke:color(display-p3 0.5686 0.4314 0.4275);stroke-opacity:1;" stroke-width="0.5" stroke-miterlimit="10"/>
<path d="M119.133 42.0571L117.309 41.5722C117.407 41.2059 117.468 40.8246 117.491 40.4389C117.567 39.1449 117.215 37.9098 116.498 36.9613C115.817 36.0586 114.883 35.5284 113.87 35.4687L113.981 33.5873C115.555 33.6803 116.985 34.4756 118.005 35.8262C118.991 37.1316 119.477 38.8094 119.375 40.5495C119.344 41.0608 119.263 41.5678 119.133 42.0559V42.0571Z" fill="#FBB1B1" stroke="#916E6D" style="fill:#FBB1B1;fill:color(display-p3 0.9843 0.6941 0.6941);fill-opacity:1;stroke:#916E6D;stroke:color(display-p3 0.5686 0.4314 0.4275);stroke-opacity:1;" stroke-width="0.5" stroke-miterlimit="10"/>
<path d="M40.2322 39.1492L20.6152 91.9578L109.043 102.844L128.662 50.0293L40.2322 39.1492Z" fill="#E4F3FF" stroke="#E1F2FF" style="fill:#E4F3FF;fill:color(display-p3 0.8941 0.9529 1.0000);fill-opacity:1;stroke:#E1F2FF;stroke:color(display-p3 0.8824 0.9490 1.0000);stroke-opacity:1;" stroke-width="0.375" stroke-miterlimit="10"/>
<path d="M40.2322 39.1492L20.6152 91.9578L105.867 102.268L125.551 49.2799L40.2322 39.1492Z" fill="#9DBBDF" style="fill:#9DBBDF;fill:color(display-p3 0.6157 0.7333 0.8745);fill-opacity:1;"/>
<path d="M105.845 102.45L20.6152 91.9578" stroke="#7395BD" style="stroke:#7395BD;stroke:color(display-p3 0.4510 0.5843 0.7412);stroke-opacity:1;" stroke-width="0.375" stroke-miterlimit="10"/>
<path d="M109.769 92.1268L24.5391 81.6349" stroke="#7395BD" style="stroke:#7395BD;stroke:color(display-p3 0.4510 0.5843 0.7412);stroke-opacity:1;" stroke-width="0.375" stroke-miterlimit="10"/>
<path d="M113.693 81.8039L28.4629 71.312" stroke="#7395BD" style="stroke:#7395BD;stroke:color(display-p3 0.4510 0.5843 0.7412);stroke-opacity:1;" stroke-width="0.375" stroke-miterlimit="10"/>
<path d="M117.615 71.481L32.3857 60.9891" stroke="#7395BD" style="stroke:#7395BD;stroke:color(display-p3 0.4510 0.5843 0.7412);stroke-opacity:1;" stroke-width="0.375" stroke-miterlimit="10"/>
<path d="M121.538 61.1581L36.3086 50.6662" stroke="#7395BD" style="stroke:#7395BD;stroke:color(display-p3 0.4510 0.5843 0.7412);stroke-opacity:1;" stroke-width="0.375" stroke-miterlimit="10"/>
<path d="M109.043 102.844L105.845 102.45" stroke="#7395BD" style="stroke:#7395BD;stroke:color(display-p3 0.4510 0.5843 0.7412);stroke-opacity:1;" stroke-width="0.375" stroke-miterlimit="10"/>
<path d="M126.383 56.1628L109.043 102.844" stroke="#7395BD" style="stroke:#7395BD;stroke:color(display-p3 0.4510 0.5843 0.7412);stroke-opacity:1;" stroke-width="0.375" stroke-miterlimit="10"/>
<path d="M126.237 53.9152L108.006 102.993" stroke="#7395BD" style="stroke:#7395BD;stroke:color(display-p3 0.4510 0.5843 0.7412);stroke-opacity:1;" stroke-width="0.375" stroke-miterlimit="10"/>
<path d="M125.616 52.5973L106.896 102.993" stroke="#7395BD" style="stroke:#7395BD;stroke:color(display-p3 0.4510 0.5843 0.7412);stroke-opacity:1;" stroke-width="0.375" stroke-miterlimit="10"/>
<path d="M122.937 56.3186L105.596 103" stroke="#7395BD" style="stroke:#7395BD;stroke:color(display-p3 0.4510 0.5843 0.7412);stroke-opacity:1;" stroke-width="0.375" stroke-miterlimit="10"/>
<path d="M110.796 54.0754L93.4561 100.756" stroke="#7395BD" style="stroke:#7395BD;stroke:color(display-p3 0.4510 0.5843 0.7412);stroke-opacity:1;" stroke-width="0.375" stroke-miterlimit="10"/>
<path d="M98.6557 51.8322L81.3154 98.5129" stroke="#7395BD" style="stroke:#7395BD;stroke:color(display-p3 0.4510 0.5843 0.7412);stroke-opacity:1;" stroke-width="0.375" stroke-miterlimit="10"/>
<path d="M86.5151 50.6123L69.1748 97.2929" stroke="#7395BD" style="stroke:#7395BD;stroke:color(display-p3 0.4510 0.5843 0.7412);stroke-opacity:1;" stroke-width="0.375" stroke-miterlimit="10"/>
<path d="M73.9092 48.6529L56.5684 95.3336" stroke="#7395BD" style="stroke:#7395BD;stroke:color(display-p3 0.4510 0.5843 0.7412);stroke-opacity:1;" stroke-width="0.375" stroke-miterlimit="10"/>
<path d="M61.5873 47.3683L44.2471 94.049" stroke="#7395BD" style="stroke:#7395BD;stroke:color(display-p3 0.4510 0.5843 0.7412);stroke-opacity:1;" stroke-width="0.375" stroke-miterlimit="10"/>
<path d="M48.5785 46.1748L31.2383 92.8561" stroke="#7395BD" style="stroke:#7395BD;stroke:color(display-p3 0.4510 0.5843 0.7412);stroke-opacity:1;" stroke-width="0.375" stroke-miterlimit="10"/>
<path d="M37.9555 45.1012L20.6152 91.7825" stroke="#7395BD" style="stroke:#7395BD;stroke:color(display-p3 0.4510 0.5843 0.7412);stroke-opacity:1;" stroke-width="0.375" stroke-miterlimit="10"/>
<path d="M88.8875 91.5395C118.635 85.4763 126.888 45.5881 127.502 42.4026C127.522 42.2939 127.446 42.1909 127.336 42.1796L38.2519 33.0302C38.1544 33.0201 38.0657 33.0861 38.0475 33.1816C37.4976 36.0555 29.6133 74.6352 1.23622 81.9346C0.897136 82.022 0.934881 82.5151 1.2834 82.5509L88.8296 91.5426C88.8491 91.5445 88.8686 91.5439 88.8875 91.5395Z" fill="#E4F3FF" stroke="#E1F2FF" style="fill:#E4F3FF;fill:color(display-p3 0.8941 0.9529 1.0000);fill-opacity:1;stroke:#E1F2FF;stroke:color(display-p3 0.8824 0.9490 1.0000);stroke-opacity:1;" stroke-width="0.5" stroke-miterlimit="10"/>
<path d="M88.8875 91.5394C118.635 85.4763 126.888 45.5881 127.502 42.4026C127.522 42.2939 127.446 42.1909 127.336 42.1796L38.2519 33.0301C38.1544 33.0201 38.0657 33.0861 38.0475 33.1815C37.4976 36.0555 29.6133 74.6352 1.23622 81.9346C0.897136 82.0219 0.934881 82.515 1.2834 82.5508L88.8296 91.5426C88.8491 91.5445 88.8686 91.5438 88.8875 91.5394Z" fill="#9DBBDF" style="fill:#9DBBDF;fill:color(display-p3 0.6157 0.7333 0.8745);fill-opacity:1;"/>
<path d="M34.8668 44.6251C30.399 57.4531 20.5776 76.9594 1.23622 81.9346C0.897136 82.0219 0.934881 82.515 1.2834 82.5508L2.43588 82.6689" stroke="#7395BD" style="stroke:#7395BD;stroke:color(display-p3 0.4510 0.5843 0.7412);stroke-opacity:1;" stroke-width="0.375" stroke-miterlimit="10"/>
<path d="M47.0718 46.3564C42.6871 58.9457 31.8768 78.0053 13.2412 83.4108" stroke="#7395BD" style="stroke:#7395BD;stroke:color(display-p3 0.4510 0.5843 0.7412);stroke-opacity:1;" stroke-width="0.375" stroke-miterlimit="10"/>
<path d="M59.4422 48.1486C55.0574 60.7379 45.6248 79.4784 26.9893 84.8845" stroke="#7395BD" style="stroke:#7395BD;stroke:color(display-p3 0.4510 0.5843 0.7412);stroke-opacity:1;" stroke-width="0.375" stroke-miterlimit="10"/>
<path d="M72.5431 49.5161C68.1584 62.1055 59.5662 80.5325 40.9307 85.938" stroke="#7395BD" style="stroke:#7395BD;stroke:color(display-p3 0.4510 0.5843 0.7412);stroke-opacity:1;" stroke-width="0.375" stroke-miterlimit="10"/>
<path d="M85.0012 50.8403C80.6164 63.4297 73.3592 82.1978 54.7236 87.6032" stroke="#7395BD" style="stroke:#7395BD;stroke:color(display-p3 0.4510 0.5843 0.7412);stroke-opacity:1;" stroke-width="0.375" stroke-miterlimit="10"/>
<path d="M97.8537 52.1764C93.4689 64.7658 86.8729 83.0641 68.2373 88.4702" stroke="#7395BD" style="stroke:#7395BD;stroke:color(display-p3 0.4510 0.5843 0.7412);stroke-opacity:1;" stroke-width="0.375" stroke-miterlimit="10"/>
<path d="M111.242 53.5622C106.857 66.1516 98.1854 85.0183 79.5498 90.4244" stroke="#7395BD" style="stroke:#7395BD;stroke:color(display-p3 0.4510 0.5843 0.7412);stroke-opacity:1;" stroke-width="0.375" stroke-miterlimit="10"/>
<path d="M88.8877 91.5394C109.295 87.3796 119.587 67.3024 124.236 54.0754" stroke="#7395BD" style="stroke:#7395BD;stroke:color(display-p3 0.4510 0.5843 0.7412);stroke-opacity:1;" stroke-width="0.375" stroke-miterlimit="10"/>
<path d="M2.4375 82.6689L88.8306 91.5419C88.8501 91.5438 88.8696 91.5432 88.8884 91.5388" stroke="#7395BD" style="stroke:#7395BD;stroke:color(display-p3 0.4510 0.5843 0.7412);stroke-opacity:1;" stroke-width="0.375" stroke-miterlimit="10"/>
<path d="M13.9844 76.6308L100.377 85.5039C100.397 85.5058 100.416 85.5051 100.435 85.5007" stroke="#7395BD" style="stroke:#7395BD;stroke:color(display-p3 0.4510 0.5843 0.7412);stroke-opacity:1;" stroke-width="0.375" stroke-miterlimit="10"/>
<path d="M22.0137 69.5155L108.407 78.3885C108.426 78.3904 108.446 78.3898 108.465 78.3854" stroke="#7395BD" style="stroke:#7395BD;stroke:color(display-p3 0.4510 0.5843 0.7412);stroke-opacity:1;" stroke-width="0.375" stroke-miterlimit="10"/>
<path d="M28.0859 61.4924L114.479 70.3654C114.499 70.3673 114.518 70.3666 114.537 70.3622" stroke="#7395BD" style="stroke:#7395BD;stroke:color(display-p3 0.4510 0.5843 0.7412);stroke-opacity:1;" stroke-width="0.375" stroke-miterlimit="10"/>
<path d="M32.7002 52.9328L119.093 61.8058C119.113 61.8077 119.132 61.8071 119.151 61.8027" stroke="#7395BD" style="stroke:#7395BD;stroke:color(display-p3 0.4510 0.5843 0.7412);stroke-opacity:1;" stroke-width="0.375" stroke-miterlimit="10"/>
<path d="M124.629 52.9327C124.629 52.9327 125.451 56.2558 126.383 56.1628C127.315 56.0699 130.001 45.7904 130.001 45.247C130.001 44.7036 128.595 42.7204 127.501 42.4026C126.407 42.0847 124.629 52.9327 124.629 52.9327Z" fill="#6FA688" stroke="#5D9B79" style="fill:#6FA688;fill:color(display-p3 0.4353 0.6510 0.5333);fill-opacity:1;stroke:#5D9B79;stroke:color(display-p3 0.3647 0.6078 0.4745);stroke-opacity:1;" stroke-width="0.5" stroke-miterlimit="10"/>
<path d="M124.629 52.9328C124.629 52.9328 125.451 56.2558 126.383 56.1629C127.315 56.0699 130.001 45.7904 130.001 45.247C130.001 44.7036 128.595 42.7205 127.501 42.4026C126.407 42.0847 124.629 52.9328 124.629 52.9328Z" fill="#5C846D" style="fill:#5C846D;fill:color(display-p3 0.3608 0.5176 0.4275);fill-opacity:1;"/>
<path d="M124.629 52.9328C126.481 47.4456 127.322 43.3386 127.502 42.4026C127.522 42.2939 127.446 42.1909 127.336 42.1796L38.2519 33.0302C38.1544 33.0201 38.0657 33.0861 38.0475 33.1816C37.894 33.9831 37.1712 37.5588 35.5928 42.4586L124.629 52.9328Z" fill="#6FA688" stroke="#5D9B79" style="fill:#6FA688;fill:color(display-p3 0.4353 0.6510 0.5333);fill-opacity:1;stroke:#5D9B79;stroke:color(display-p3 0.3647 0.6078 0.4745);stroke-opacity:1;" stroke-width="0.5" stroke-miterlimit="10"/>
<path d="M124.629 52.9328C126.481 47.4456 127.322 43.3386 127.502 42.4026C127.522 42.2939 127.446 42.1909 127.336 42.1796L38.2519 33.0301C38.1544 33.0201 38.0657 33.0861 38.0475 33.1815C37.894 33.9831 37.1712 37.5587 35.5928 42.4585L124.629 52.9328Z" fill="#5C846D" style="fill:#5C846D;fill:color(display-p3 0.3608 0.5176 0.4275);fill-opacity:1;"/>
<path d="M112.583 46.7377C112.515 46.7377 112.445 46.7302 112.376 46.7145C111.001 46.4054 109.78 45.5329 108.938 44.257C108.114 43.007 107.712 41.4484 107.805 39.8679C108.022 36.217 110.792 33.3983 113.982 33.5886C114.503 33.6194 114.9 34.0654 114.869 34.5849C114.838 35.1044 114.394 35.4996 113.871 35.4701C111.721 35.3432 109.844 37.3659 109.689 39.9798C109.55 42.343 110.883 44.4486 112.79 44.8771C113.299 44.9914 113.618 45.4952 113.504 46.0034C113.405 46.4412 113.015 46.739 112.584 46.739L112.583 46.7377Z" fill="#FBB1B1" stroke="#916E6D" style="fill:#FBB1B1;fill:color(display-p3 0.9843 0.6941 0.6941);fill-opacity:1;stroke:#916E6D;stroke:color(display-p3 0.5686 0.4314 0.4275);stroke-opacity:1;" stroke-width="0.5" stroke-miterlimit="10"/>
<path d="M119.375 40.5507C119.478 38.81 118.992 37.1328 118.005 35.8274C116.985 34.4762 115.555 33.681 113.981 33.5886C110.791 33.3983 108.021 36.2175 107.804 39.8679C107.711 41.4484 108.113 43.0075 108.937 44.257C109.779 45.5328 111 46.406 112.375 46.7144C112.445 46.7301 112.514 46.7376 112.582 46.7376C113.014 46.7376 113.403 46.4399 113.502 46.002C113.617 45.4945 113.297 44.9901 112.789 44.8757C110.881 44.4473 109.548 42.3423 109.688 39.9784C109.843 37.3646 111.72 35.3418 113.869 35.4687C114.882 35.5284 115.816 36.0586 116.498 36.9613C117.214 37.9098 117.567 39.1449 117.49 40.4389L119.374 40.5501L119.375 40.5507Z" fill="#FBB1B1" style="fill:#FBB1B1;fill:color(display-p3 0.9843 0.6941 0.6941);fill-opacity:1;"/>
<path d="M91.2464 44.563C91.1778 44.563 91.108 44.5554 91.0388 44.5397C89.6636 44.2306 88.4432 43.3581 87.6014 42.0823C86.7773 40.8322 86.3747 39.2737 86.4684 37.6932C86.6848 34.0422 89.4547 31.2235 92.6455 31.4139C93.1657 31.4447 93.5627 31.8907 93.5319 32.4102C93.501 32.9297 93.0575 33.3248 92.5341 33.2953C90.3845 33.1684 88.5073 35.1911 88.3526 37.805C88.2129 40.1682 89.5459 42.2739 91.4533 42.7023C91.9617 42.8166 92.2812 43.3204 92.1667 43.8286C92.068 44.2664 91.6785 44.5642 91.247 44.5642L91.2464 44.563Z" fill="#FBB1B1" stroke="#916E6D" style="fill:#FBB1B1;fill:color(display-p3 0.9843 0.6941 0.6941);fill-opacity:1;stroke:#916E6D;stroke:color(display-p3 0.5686 0.4314 0.4275);stroke-opacity:1;" stroke-width="0.5" stroke-miterlimit="10"/>
<path d="M70.6517 42.2273C70.5831 42.2273 70.5132 42.2198 70.444 42.2041C69.0688 41.895 67.8484 41.0225 67.0067 39.7467C66.1826 38.4966 65.78 36.9381 65.8737 35.3576C66.0901 31.7066 68.86 28.888 72.0507 29.0783C72.571 29.1091 72.9679 29.5551 72.9371 30.0746C72.9063 30.5941 72.4628 30.9892 71.9394 30.9597C69.7898 30.8328 67.9126 32.8555 67.7578 35.4694C67.6182 37.8326 68.9512 39.9383 70.8586 40.3667C71.3669 40.481 71.6865 40.9848 71.572 41.493C71.4732 41.9309 71.0838 42.2286 70.6523 42.2286L70.6517 42.2273Z" fill="#FBB1B1" stroke="#916E6D" style="fill:#FBB1B1;fill:color(display-p3 0.9843 0.6941 0.6941);fill-opacity:1;stroke:#916E6D;stroke:color(display-p3 0.5686 0.4314 0.4275);stroke-opacity:1;" stroke-width="0.5" stroke-miterlimit="10"/>
<path d="M49.0393 40.1582C48.9708 40.1582 48.9009 40.1506 48.8317 40.1349C47.4565 39.8258 46.2361 38.9533 45.3944 37.6775C44.5703 36.4274 44.1677 34.8689 44.2614 33.2884C44.4778 29.6374 47.2477 26.8187 50.4384 27.0091C50.9587 27.0399 51.3556 27.4859 51.3248 28.0054C51.294 28.5249 50.8505 28.92 50.3271 28.8905C48.1775 28.7636 46.3003 30.7863 46.1455 33.4002C46.0059 35.7634 47.3389 37.8691 49.2463 38.2975C49.7546 38.4118 50.0742 38.9156 49.9597 39.4238C49.8609 39.8616 49.4715 40.1594 49.04 40.1594L49.0393 40.1582Z" fill="#FBB1B1" stroke="#916E6D" style="fill:#FBB1B1;fill:color(display-p3 0.9843 0.6941 0.6941);fill-opacity:1;stroke:#916E6D;stroke:color(display-p3 0.5686 0.4314 0.4275);stroke-opacity:1;" stroke-width="0.5" stroke-miterlimit="10"/>
<path d="M98.0377 38.376C98.1408 36.6353 97.6546 34.9581 96.6681 33.6527C95.6478 32.3015 94.2185 31.5062 92.6445 31.4139C89.4537 31.2236 86.6838 34.0428 86.4674 37.6932C86.3737 39.2737 86.7763 40.8328 87.6004 42.0823C88.4422 43.3581 89.6626 44.2313 91.0378 44.5397C91.1076 44.5554 91.1768 44.563 91.2454 44.563C91.677 44.563 92.0664 44.2652 92.1651 43.8274C92.2796 43.3198 91.96 42.8153 91.4517 42.701C89.5443 42.2726 88.2113 40.1676 88.3509 37.8037C88.5057 35.1899 90.3829 33.1671 92.5325 33.294C93.5454 33.3537 94.4789 33.8839 95.1608 34.7866C95.8774 35.7351 96.2297 36.9701 96.1529 38.2642L98.0371 38.3754L98.0377 38.376Z" fill="#FBB1B1" style="fill:#FBB1B1;fill:color(display-p3 0.9843 0.6941 0.6941);fill-opacity:1;"/>
<path d="M77.443 36.0404C77.5462 34.2998 77.0599 32.6225 76.0734 31.3171C75.0531 29.9659 73.6238 29.1707 72.0498 29.0783C68.859 28.888 66.0891 31.7072 65.8727 35.3576C65.779 36.9381 66.1816 38.4973 67.0057 39.7467C67.8474 41.0225 69.0679 41.8957 70.4431 42.2041C70.5129 42.2198 70.5821 42.2273 70.6507 42.2273C71.0822 42.2273 71.4716 41.9296 71.5704 41.4917C71.6849 40.9842 71.3653 40.4798 70.857 40.3654C68.9496 39.937 67.6166 37.832 67.7562 35.4681C67.911 32.8543 69.7882 30.8315 71.9378 30.9584C72.9506 31.0181 73.8842 31.5483 74.5662 32.451C75.2827 33.3995 75.635 34.6346 75.5582 35.9286L77.4423 36.0398L77.443 36.0404Z" fill="#FBB1B1" style="fill:#FBB1B1;fill:color(display-p3 0.9843 0.6941 0.6941);fill-opacity:1;"/>
<path d="M55.8316 33.9712C55.9348 32.2305 55.4485 30.5532 54.4621 29.2479C53.4417 27.8966 52.0124 27.1014 50.4384 27.009C47.2477 26.8187 44.4778 29.638 44.2614 33.2883C44.1677 34.8688 44.5703 36.428 45.3944 37.6774C46.2361 38.9533 47.4565 39.8264 48.8317 40.1349C48.9016 40.1506 48.9708 40.1581 49.0393 40.1581C49.4709 40.1581 49.8603 39.8604 49.9591 39.4225C50.0735 38.915 49.754 38.4105 49.2457 38.2962C47.3383 37.8677 46.0052 35.7627 46.1449 33.3989C46.2996 30.785 48.1769 28.7623 50.3265 28.8892C51.3393 28.9488 52.2729 29.4791 52.9548 30.3818C53.6713 31.3303 54.0236 32.5653 53.9469 33.8593L55.831 33.9706L55.8316 33.9712Z" fill="#FBB1B1" style="fill:#FBB1B1;fill:color(display-p3 0.9843 0.6941 0.6941);fill-opacity:1;"/>
</svg>
