<svg width="40" height="40" viewBox="0 0 40 40" fill="none" xmlns="http://www.w3.org/2000/svg">
<g clip-path="url(#clip0_138_8664)">
<path d="M31.3899 24.5425C31.1732 24.9669 30.7106 24.9912 30.7389 25.3555C31.2149 30.0153 24.9438 27.5722 22.2526 27.2211C21.7657 27.0792 22.4282 27.9161 22.5107 28.0345C24.1007 30.2057 23.8703 29.1555 23.3118 31.4987C22.779 33.0825 24.9466 34.9011 23.3981 34.999C21.7392 35.049 11.0566 33.3316 12.1371 30.9581C13.3589 29.5256 14.1923 27.6319 13.8664 25.743C13.8485 25.6773 13.8881 25.6285 13.922 25.5817C14.1403 25.2817 14.2467 24.9403 14.3186 24.5852C14.3308 24.5248 14.3224 24.4368 14.4069 24.43C14.5413 24.4117 14.6206 24.9057 14.634 25.0296C15.5807 23.786 15.1209 21.7046 15.5592 22.1822C16.2271 22.6833 16.9528 23.2645 17.8133 23.3661C17.9384 23.3648 18.053 23.3448 18.1579 23.2773C18.2826 23.2414 18.4108 23.2612 18.5374 23.2562C19.412 23.2997 19.8391 22.115 19.1128 21.6453C18.707 21.4261 18.7353 21.0692 18.3024 20.8368C18.015 20.6566 17.9362 20.4274 18.017 20.1085C18.31 19.3812 18.3434 18.6271 17.7574 18.0344C17.6951 17.9644 17.608 17.9118 17.5906 17.81C17.6648 17.5373 17.4708 16.6742 18.0076 16.988C18.0752 17.0304 18.1318 17.1102 18.2302 17.0531C18.3578 17.0623 18.4104 17.1643 18.4728 17.2478C18.7295 17.5727 19.0462 17.2651 19.4305 17.8731C19.6689 18.246 19.8963 18.6523 20.3852 18.7526C20.152 16.6791 21.5377 16.3497 21.8966 14.8504C22.1532 14.1738 22.1229 15.8904 22.0126 16.0273C23.0088 15.1316 23.5007 13.7578 23.6385 12.4701C23.6421 12.4114 23.6572 12.3189 23.7292 12.3144C23.9488 12.4069 23.899 14.2154 23.7852 14.4966C25.2699 13.6756 25.8925 11.9649 26.1809 10.4135C26.1933 10.3348 26.2069 10.2582 26.2981 10.2312C26.8403 10.2019 27.2403 11.7051 27.4261 12.1133C27.8747 11.3456 27.8347 10.3835 27.5082 9.57929C27.4855 9.52721 27.45 9.45823 27.5076 9.41568C27.564 9.37409 27.6222 9.42423 27.6708 9.45765C28.607 10.1206 29.2997 10.9768 29.8755 11.9695C29.9042 11.3262 29.7782 10.7475 29.551 10.1787C29.534 10.1249 29.4854 10.0569 29.5484 10.0177C29.6349 9.90826 30.376 10.6917 30.3411 10.7854C30.2903 10.8392 30.3417 10.8856 30.3582 10.929C30.901 12.54 31.4905 14.3137 30.9458 15.9891C30.8551 16.3606 30.7658 16.7325 30.834 17.1227C31.3062 19.0413 34.7458 19.9031 31.8593 21.3686C31.7187 21.4487 31.6675 21.5277 31.7006 21.6915C31.7568 21.9686 31.8029 22.2469 31.892 22.5168C32.161 23.3519 30.7116 23.7081 30.0832 23.8554C30.492 24.1716 31.2135 23.9671 31.3905 24.5431L31.3899 24.5425Z" fill="#EFAE94" style="fill:#EFAE94;fill:color(display-p3 0.9373 0.6824 0.5804);fill-opacity:1;"/>
<path d="M15.3991 22.134C15.3651 23.1685 15.2676 24.271 14.6089 25.1309C14.5646 24.8892 14.5315 24.6612 14.4008 24.4152C14.2844 25.0258 14.1044 25.7177 13.5236 25.9934C12.465 23.4188 9.68455 21.9632 8.27599 19.5473C6.32428 16.2139 6.47656 11.2832 9.67538 8.73345C8.96801 8.88423 8.32821 9.17143 7.67604 9.50662C8.36847 8.45325 9.63233 7.54678 10.9602 7.50073C11.123 7.51666 11.2099 7.4506 11.2936 7.32468C12.2442 5.90659 13.6061 4.85089 15.202 4.20053C14.6633 4.66494 14.1225 5.12235 13.6822 5.73735C20.5327 1.52368 24.3759 6.76001 28.9038 4C28.9594 4.0478 28.9106 4.10979 28.8875 4.16186C28.4998 4.96826 27.8429 5.53157 27.0496 5.99345C28.2367 6.0191 29.4418 5.87939 30.3576 5.13401C30.4108 5.08718 30.4708 5.01839 30.5446 5.04598C30.6275 5.07707 30.5952 5.16976 30.5952 5.23602C30.6187 6.16891 30.124 6.93703 29.6289 7.67153C30.3168 7.6144 30.9348 7.36471 31.5428 7.00329C31.4004 7.81124 30.8954 8.28342 30.1854 8.59296C30.9618 9.03813 31.7467 9.45862 32.1814 10.2736C31.8589 10.0635 31.5587 9.82121 31.1565 9.68111C31.6687 10.5983 31.7287 11.5426 31.5045 12.5686C30.9683 11.5611 30.4264 10.7119 29.5315 9.99531C29.8017 10.6754 29.9849 11.3343 29.901 12.0931C29.2672 11.0219 28.5407 10.0932 27.4907 9.39178C27.8869 10.3707 27.9525 11.3085 27.4229 12.2311C27.3484 12.2101 27.3633 12.1553 27.3521 12.1149C27.2445 11.7134 26.7586 10.2635 26.2974 10.2528C25.925 11.8267 25.3384 13.7828 23.731 14.5856C23.8759 13.8301 23.8595 13.086 23.7326 12.3412C23.5281 13.7753 23.0868 15.1009 21.9662 16.128C22.0601 15.657 22.0994 15.1904 21.9752 14.7175C21.6509 16.3796 20.1648 16.6612 20.4319 18.8122C19.8955 18.7343 19.6314 18.2781 19.3773 17.869C18.996 17.298 18.6968 17.5881 18.5009 17.365C18.416 17.2608 18.3598 17.1305 18.2276 17.0675C15.0968 14.9505 12.8166 18.9844 15.2959 21.3534C15.4777 21.5592 15.4868 21.8812 15.3987 22.1336L15.3991 22.134Z" fill="#713E21" style="fill:#713E21;fill:color(display-p3 0.4431 0.2431 0.1294);fill-opacity:1;"/>
<path d="M23.7582 29.9353C23.51 29.2555 22.9737 28.7626 22.5663 28.1861C22.4654 28.0576 21.6494 27.0134 22.2069 27.1634C23.2374 27.4006 24.3051 27.5641 25.3172 27.8382C24.3378 28.0784 24.0464 29.1172 23.7584 29.9353H23.7582Z" fill="#CE876D" style="fill:#CE876D;fill:color(display-p3 0.8078 0.5294 0.4275);fill-opacity:1;"/>
<path d="M31.3895 24.5425C31.0777 23.9788 30.3983 24.231 29.96 23.82C30.5246 23.7388 31.0419 23.589 31.4957 23.26C31.5326 23.2293 31.5838 23.1619 31.6482 23.2342C30.9741 23.7035 31.9065 23.9116 31.3895 24.5425Z" fill="#DB937C" style="fill:#DB937C;fill:color(display-p3 0.8588 0.5765 0.4863);fill-opacity:1;"/>
<path d="M15.3589 21.4949C12.4497 18.6117 15.4753 14.9273 18.2277 17.0681C18.2295 17.1204 18.2297 17.1592 18.1497 17.1392C18.0086 17.0887 17.9273 16.9103 17.7561 16.9651C17.5817 17.0364 17.7378 17.6265 17.6102 17.8078C16.0717 16.6346 14.6643 17.5747 14.9192 19.4084C15.395 16.614 18.2362 18.4568 17.369 19.1486C17.2504 19.2461 17.1075 19.2951 16.967 19.3501C16.4201 19.5642 16.1329 20.1312 16.3025 20.6802C16.3726 20.9073 16.5417 21.0678 16.7784 21.095C17.5044 21.1652 18.1924 21.4409 18.9201 21.4595C19.0762 21.5856 19.249 21.683 19.3835 21.8453C19.7048 22.2329 19.4888 23.0686 18.9099 23.234C17.6481 23.5865 16.0583 22.4315 15.3585 21.4951L15.3589 21.4949Z" fill="#EDB197" style="fill:#EDB197;fill:color(display-p3 0.9294 0.6941 0.5922);fill-opacity:1;"/>
<path d="M18.9212 21.4592C18.7506 21.5262 18.5799 21.4945 18.4097 21.4592C17.8634 21.3449 17.3205 21.2172 16.766 21.1376C16.0064 21.0245 16.1206 19.9274 16.5663 19.5143C16.8975 19.2228 17.8411 19.1694 17.3892 18.5565C17.0707 18.0987 16.4152 17.803 15.8501 18.0216C15.1904 18.3008 15.078 18.9945 14.903 19.6153C14.1936 15.8078 19.3792 17.1454 18.0474 20.1691C17.8686 20.7542 18.553 20.7305 18.9212 21.4595V21.4592Z" fill="#CE886E" style="fill:#CE886E;fill:color(display-p3 0.8078 0.5333 0.4314);fill-opacity:1;"/>
<path d="M15.3596 21.4949C16.103 22.3353 17.0695 22.9791 18.1574 23.3022C17.6015 23.8296 15.887 22.4746 15.3994 22.1342C15.3875 21.921 15.4016 21.7063 15.3594 21.4951L15.3596 21.4949Z" fill="#DB9179" style="fill:#DB9179;fill:color(display-p3 0.8588 0.5686 0.4745);fill-opacity:1;"/>
<path d="M24.5252 10.6091C24.1985 10.3756 23.3576 9.8115 22.9805 9.86105C22.9057 9.91817 22.9713 10.0262 22.9912 10.1103C23.0534 10.4075 23.1535 10.6789 23.178 10.9849C22.3215 10.628 20.8671 9.54432 20.6465 8.65553C22.005 8.74589 24.1106 9.08516 24.5252 10.6093V10.6091Z" fill="#935A41" style="fill:#935A41;fill:color(display-p3 0.5765 0.3529 0.2549);fill-opacity:1;"/>
<path d="M27.6828 7.90199C26 8.23543 24.4092 7.28699 23.0557 6.41395C24.8063 6.5352 26.5551 6.6341 28.3088 6.39587C27.6947 6.96249 26.6412 6.9928 25.8365 7.03264C25.7863 7.03361 25.7137 7.00582 25.6938 7.07325C25.6713 7.14942 25.7484 7.16807 25.7997 7.1943C26.4002 7.51375 27.0235 7.72244 27.6828 7.90179V7.90199Z" fill="#935940" style="fill:#935940;fill:color(display-p3 0.5765 0.3490 0.2510);fill-opacity:1;"/>
<path d="M25.7181 5.44898C23.9946 5.85432 22.2944 5.62969 20.5801 5.47463C21.4228 4.82835 24.6298 4.81164 25.7181 5.44898Z" fill="#915840" style="fill:#915840;fill:color(display-p3 0.5686 0.3451 0.2510);fill-opacity:1;"/>
<path d="M15.0596 12.9329C15.9862 12.2019 16.7779 11.3681 17.2756 10.2353C17.6391 11.667 16.2417 12.5169 15.0596 12.9329Z" fill="#935940" style="fill:#935940;fill:color(display-p3 0.5765 0.3490 0.2510);fill-opacity:1;"/>
<path d="M18.1172 11.9553C18.41 11.0395 18.519 10.117 18.6256 9.17415C19.0956 10.0915 19.0562 11.052 18.1172 11.9553Z" fill="#945941" style="fill:#945941;fill:color(display-p3 0.5804 0.3490 0.2549);fill-opacity:1;"/>
</g>
<defs>
<clipPath id="clip0_138_8664">
<rect width="26" height="31" fill="white" style="fill:white;fill-opacity:1;" transform="translate(7 4)"/>
</clipPath>
</defs>
</svg>
