<svg width="130" height="130" viewBox="0 0 130 130" fill="none" xmlns="http://www.w3.org/2000/svg">
<path d="M91.0339 86.449C91.0339 86.449 85.0326 46.1546 69.9233 30.942C69.9233 30.942 47.5929 43.6738 32.9443 45.1869C32.9443 45.1869 47.3237 78.8371 47.6237 99.9007C47.6237 99.9007 83.4843 94.313 91.0335 86.4486" fill="#EAF6FF" style="fill:#EAF6FF;fill:color(display-p3 0.9176 0.9647 1.0000);fill-opacity:1;"/>
<path d="M91.0339 86.449C91.0339 86.449 85.0326 46.1546 69.9233 30.942C69.9233 30.942 47.5929 43.6738 32.9443 45.1869C32.9443 45.1869 47.3237 78.8371 47.6237 99.9007C47.6237 99.9007 83.4843 94.313 91.0335 86.4486" stroke="#E4F3FF" style="stroke:#E4F3FF;stroke:color(display-p3 0.8941 0.9529 1.0000);stroke-opacity:1;" stroke-width="0.5" stroke-miterlimit="10"/>
<path d="M91.0339 86.449C91.0339 86.449 85.0326 46.1545 69.9233 30.942C69.9233 30.942 47.5929 43.6738 32.9443 45.1869C32.9443 45.1869 47.3237 78.8371 47.6237 99.9007C47.6237 99.9007 83.4843 94.313 91.0335 86.4486" fill="#B2CAE6" style="fill:#B2CAE6;fill:color(display-p3 0.6980 0.7922 0.9020);fill-opacity:1;"/>
<path d="M35.7269 89.0653C35.7269 89.0653 42.3963 49.1553 56.9853 33.4435C56.9853 33.4435 83.001 39.7689 97.6922 40.7891C97.6922 40.7891 78.6754 74.8092 79.0835 95.8709C79.0835 95.8709 43.5361 96.6712 35.7266 89.0649" fill="#EAF6FF" style="fill:#EAF6FF;fill:color(display-p3 0.9176 0.9647 1.0000);fill-opacity:1;"/>
<path d="M35.7269 89.0653C35.7269 89.0653 42.3963 49.1553 56.9853 33.4435C56.9853 33.4435 83.001 39.7689 97.6922 40.7891C97.6922 40.7891 78.6754 74.8092 79.0835 95.8709C79.0835 95.8709 43.5361 96.6712 35.7266 89.0649" stroke="#E4F3FF" style="stroke:#E4F3FF;stroke:color(display-p3 0.8941 0.9529 1.0000);stroke-opacity:1;" stroke-width="0.5" stroke-miterlimit="10"/>
<path d="M35.7279 89.0653C35.7279 89.0653 42.3973 49.1553 56.9862 33.4435C56.9862 33.4435 83.002 39.7689 97.6932 40.7891C97.6932 40.7891 78.6764 74.8093 79.0844 95.8709C79.0844 95.8709 43.5371 96.6712 35.7275 89.0649" fill="#B2CAE6" style="fill:#B2CAE6;fill:color(display-p3 0.6980 0.7922 0.9020);fill-opacity:1;"/>
<path d="M44.0947 75.6221C44.0947 75.6221 49.4299 76.923 52.5209 77.177C55.6119 77.4311 73.2382 79.9411 76.5136 81.1113" stroke="#7395BD" style="stroke:#7395BD;stroke:color(display-p3 0.4510 0.5843 0.7412);stroke-opacity:1;" stroke-width="0.375" stroke-miterlimit="10"/>
<path d="M45.6758 71.6871C45.6758 71.6871 51.3923 72.5877 54.1019 73.242C56.1835 73.7446 65.267 74.8707 71.769 75.905" stroke="#7395BD" style="stroke:#7395BD;stroke:color(display-p3 0.4510 0.5843 0.7412);stroke-opacity:1;" stroke-width="0.375" stroke-miterlimit="10"/>
<path d="M41.0176 83.7046C41.0176 83.7046 46.3527 85.0055 49.4437 85.2595C52.5348 85.5136 70.161 88.0236 73.4365 89.1938" stroke="#7395BD" style="stroke:#7395BD;stroke:color(display-p3 0.4510 0.5843 0.7412);stroke-opacity:1;" stroke-width="0.375" stroke-miterlimit="10"/>
<path d="M42.5996 79.7692C42.5996 79.7692 48.3162 80.6698 51.0258 81.3242C53.1073 81.8267 62.1908 82.9528 68.6928 83.9871" stroke="#7395BD" style="stroke:#7395BD;stroke:color(display-p3 0.4510 0.5843 0.7412);stroke-opacity:1;" stroke-width="0.375" stroke-miterlimit="10"/>
<path d="M55.7158 45.5521C55.7158 45.5521 61.0117 47.0033 64.0946 47.3448C67.1774 47.6862 82.0582 50.3584 85.2992 51.6208" stroke="#7395BD" style="stroke:#7395BD;stroke:color(display-p3 0.4510 0.5843 0.7412);stroke-opacity:1;" stroke-width="0.375" stroke-miterlimit="10"/>
<path d="M57.4082 41.6634C57.4082 41.6634 63.097 42.7258 65.787 43.4561C67.8537 44.0175 78.8287 46.2242 85.2989 47.4422" stroke="#7395BD" style="stroke:#7395BD;stroke:color(display-p3 0.4510 0.5843 0.7412);stroke-opacity:1;" stroke-width="0.375" stroke-miterlimit="10"/>
<path d="M52.4111 53.5438C52.4111 53.5438 57.707 54.9951 60.7899 55.3365C63.8728 55.678 81.4205 58.6864 84.6615 59.9488" stroke="#7395BD" style="stroke:#7395BD;stroke:color(display-p3 0.4510 0.5843 0.7412);stroke-opacity:1;" stroke-width="0.375" stroke-miterlimit="10"/>
<path d="M54.1035 49.6552C54.1035 49.6552 59.7923 50.7176 62.4823 51.4479C64.549 52.0093 76.9012 54.3474 83.3714 55.5654" stroke="#7395BD" style="stroke:#7395BD;stroke:color(display-p3 0.4510 0.5843 0.7412);stroke-opacity:1;" stroke-width="0.375" stroke-miterlimit="10"/>
<path d="M84.1899 70.8839C81.2003 79.4534 78.941 88.4639 79.0847 95.8713C79.0847 95.8713 51.0381 96.5027 39.2969 91.3131" stroke="#B2CAE6" style="stroke:#B2CAE6;stroke:color(display-p3 0.6980 0.7922 0.9020);stroke-opacity:1;" stroke-width="0.5" stroke-miterlimit="10"/>
<path d="M63.0293 34.8437C71.6099 36.7686 87.4198 40.0759 97.6927 40.7891C97.6927 40.7891 96.8643 42.2715 95.5567 44.8085" stroke="#B2CAE6" style="stroke:#B2CAE6;stroke:color(display-p3 0.6980 0.7922 0.9020);stroke-opacity:1;" stroke-width="0.5" stroke-miterlimit="10"/>
<path d="M36.4844 85.0518C37.3113 80.9461 38.8237 74.1127 41.06 66.5523" stroke="#B2CAE6" style="stroke:#B2CAE6;stroke:color(display-p3 0.6980 0.7922 0.9020);stroke-opacity:1;" stroke-width="0.5" stroke-miterlimit="10"/>
<path d="M35.7266 89.0653C35.7266 89.0653 35.9758 87.5729 36.4839 85.0518" stroke="#7395BD" style="stroke:#7395BD;stroke:color(display-p3 0.4510 0.5843 0.7412);stroke-opacity:1;" stroke-width="0.5" stroke-miterlimit="10"/>
</svg>
