<svg width="130" height="130" viewBox="0 0 130 130" fill="none" xmlns="http://www.w3.org/2000/svg">
<path d="M32.228 41.1881L40.569 98.9311C40.569 101.383 51.7308 103.934 65.4994 103.934C79.268 103.934 90.4299 101.383 90.4299 98.9311L98.7708 41.1881H32.2275H32.228Z" fill="#6FA688" stroke="#5D9B79" style="fill:#6FA688;fill:color(display-p3 0.4353 0.6510 0.5333);fill-opacity:1;stroke:#5D9B79;stroke:color(display-p3 0.3647 0.6078 0.4745);stroke-opacity:1;" stroke-width="0.375" stroke-miterlimit="10"/>
<path d="M32.2275 41.1881L40.5685 98.931C40.5685 101.383 51.7304 103.934 65.4989 103.934C79.2675 103.934 90.4294 101.383 90.4294 98.931L98.7704 41.1881H32.2275Z" fill="#5C846D" style="fill:#5C846D;fill:color(display-p3 0.3608 0.5176 0.4275);fill-opacity:1;"/>
<path d="M65.4994 47.1135C83.875 47.1135 98.7713 44.4606 98.7713 41.1881C98.7713 37.9156 83.875 35.2626 65.4994 35.2626C47.1239 35.2626 32.2275 37.9156 32.2275 41.1881C32.2275 44.4606 47.1239 47.1135 65.4994 47.1135Z" fill="#5C846D" stroke="#48755B" style="fill:#5C846D;fill:color(display-p3 0.3608 0.5176 0.4275);fill-opacity:1;stroke:#48755B;stroke:color(display-p3 0.2824 0.4588 0.3569);stroke-opacity:1;" stroke-width="0.375" stroke-miterlimit="10"/>
<path d="M65.4994 47.1135C83.875 47.1135 98.7713 44.4606 98.7713 41.1881C98.7713 37.9155 83.875 35.2626 65.4994 35.2626C47.1239 35.2626 32.2275 37.9155 32.2275 41.1881C32.2275 44.4606 47.1239 47.1135 65.4994 47.1135Z" fill="#5B6D58" style="fill:#5B6D58;fill:color(display-p3 0.3569 0.4275 0.3451);fill-opacity:1;"/>
<path d="M90.4303 98.9311C90.4303 101.383 79.2684 103.934 65.4998 103.934C51.7312 103.934 40.5693 101.383 40.5693 98.9311" stroke="#475B43" style="stroke:#475B43;stroke:color(display-p3 0.2784 0.3569 0.2627);stroke-opacity:1;" stroke-width="0.28125" stroke-miterlimit="10"/>
<path d="M92.1385 86.5242C92.1385 88.9762 80.2116 91.3392 65.4994 91.3392C50.7872 91.3392 38.8604 88.9762 38.8604 86.5242" stroke="#475B43" style="stroke:#475B43;stroke:color(display-p3 0.2784 0.3569 0.2627);stroke-opacity:1;" stroke-width="0.28125" stroke-miterlimit="10"/>
<path d="M94.1604 72.8409C94.1604 75.2929 81.3283 77.6559 65.4991 77.6559C49.6699 77.6559 36.8379 75.2929 36.8379 72.8409" stroke="#475B43" style="stroke:#475B43;stroke:color(display-p3 0.2784 0.3569 0.2627);stroke-opacity:1;" stroke-width="0.28125" stroke-miterlimit="10"/>
<path d="M95.6171 58.2065C95.6171 60.6586 82.1331 63.0215 65.4995 63.0215C48.8659 63.0215 35.3818 60.6586 35.3818 58.2065" stroke="#475B43" style="stroke:#475B43;stroke:color(display-p3 0.2784 0.3569 0.2627);stroke-opacity:1;" stroke-width="0.28125" stroke-miterlimit="10"/>
<path d="M90.875 96.3881L98.772 41.1881" stroke="#475B43" style="stroke:#475B43;stroke:color(display-p3 0.2784 0.3569 0.2627);stroke-opacity:1;" stroke-width="0.28125" stroke-miterlimit="10"/>
<path d="M73.6596 49.0903L70.5186 101.714" stroke="#475B43" style="stroke:#475B43;stroke:color(display-p3 0.2784 0.3569 0.2627);stroke-opacity:1;" stroke-width="0.28125" stroke-miterlimit="10"/>
<path d="M88.8524 47.6161L81.5234 100.884" stroke="#475B43" style="stroke:#475B43;stroke:color(display-p3 0.2784 0.3569 0.2627);stroke-opacity:1;" stroke-width="0.28125" stroke-miterlimit="10"/>
<path d="M42.8896 47.6161L50.1979 101.271" stroke="#475B43" style="stroke:#475B43;stroke:color(display-p3 0.2784 0.3569 0.2627);stroke-opacity:1;" stroke-width="0.28125" stroke-miterlimit="10"/>
<path d="M57.9482 49.2023L59.6887 102.414" stroke="#475B43" style="stroke:#475B43;stroke:color(display-p3 0.2784 0.3569 0.2627);stroke-opacity:1;" stroke-width="0.28125" stroke-miterlimit="10"/>
<path d="M40.373 98.1262L32.2275 41.1881" stroke="#475B43" style="stroke:#475B43;stroke:color(display-p3 0.2784 0.3569 0.2627);stroke-opacity:1;" stroke-width="0.28125" stroke-miterlimit="10"/>
<path d="M33.3672 39.645C37.18 37.1208 50.1212 35.2626 65.4995 35.2626C70.4997 35.2626 75.2425 35.459 79.4973 35.8111" stroke="#475B43" style="stroke:#475B43;stroke:color(display-p3 0.2784 0.3569 0.2627);stroke-opacity:1;" stroke-width="0.28125" stroke-miterlimit="10"/>
<path d="M68.8265 38.3306C69.247 38.1267 67.7048 32.6338 65.782 31.5693C63.8587 30.5048 57.8263 28.2477 56.8326 28.312C55.8388 28.3757 50.3741 31.5238 50.2326 33.3205C50.0905 35.1177 47.8194 39.3613 48.2455 39.6168C48.6712 39.8727 50.4848 42.4209 52.626 42.201C54.7673 41.9812 63.2203 41.0465 68.8265 38.3306Z" fill="#FFDB9A" stroke="#FFD68D" style="fill:#FFDB9A;fill:color(display-p3 1.0000 0.8588 0.6039);fill-opacity:1;stroke:#FFD68D;stroke:color(display-p3 1.0000 0.8392 0.5529);stroke-opacity:1;" stroke-width="0.375" stroke-miterlimit="10"/>
<path d="M68.8275 38.3306C69.248 38.1266 67.7058 32.6338 65.7829 31.5693C63.8597 30.5048 57.8273 28.2477 56.8336 28.3119C55.8398 28.3757 50.3751 31.5238 50.2335 33.3205C50.0915 35.1177 47.8204 39.3613 48.2465 39.6168C48.6721 39.8727 50.4857 42.4208 52.627 42.201C54.7682 41.9811 63.2212 41.0465 68.8275 38.3306Z" fill="#FFA269" style="fill:#FFA269;fill:color(display-p3 1.0000 0.6353 0.4118);fill-opacity:1;"/>
<path d="M64.554 37.0199C64.1335 36.816 65.6757 31.3232 67.5986 30.2587C69.5218 29.1942 75.5542 26.9371 76.5479 27.0013C77.5417 27.0651 83.0064 30.2132 83.1479 32.0099C83.29 33.8071 85.561 38.0507 85.1349 38.3062C84.7093 38.5621 82.8958 41.1102 80.7545 40.8904C78.6133 40.6705 70.1603 39.7359 64.554 37.0199Z" fill="#F0C5C4" stroke="#EEBEBD" style="fill:#F0C5C4;fill:color(display-p3 0.9412 0.7725 0.7686);fill-opacity:1;stroke:#EEBEBD;stroke:color(display-p3 0.9333 0.7451 0.7412);stroke-opacity:1;" stroke-width="0.375" stroke-miterlimit="10"/>
<path d="M64.555 37.0199C64.1345 36.816 65.6767 31.3232 67.5995 30.2587C69.5228 29.1942 75.5552 26.9371 76.5489 27.0013C77.5427 27.0651 83.0073 30.2132 83.1489 32.0099C83.2909 33.8071 85.562 38.0507 85.1359 38.3062C84.7103 38.5621 82.8967 41.1102 80.7555 40.8904C78.6142 40.6705 70.1612 39.7359 64.555 37.0199Z" fill="#D38989" style="fill:#D38989;fill:color(display-p3 0.8275 0.5373 0.5373);fill-opacity:1;"/>
<path d="M55.945 40.7081C56.2619 40.0744 59.0617 35.5317 60.1708 35.5317C61.2799 35.5317 67.1435 32.5739 68.0941 32.7848C69.0447 32.9962 72.6897 33.1547 73.5349 33.8939C74.38 34.6336 77.1794 36.6407 77.4967 37.6968C77.8136 38.7534 79.451 41.7642 79.5039 42.6623C79.5569 43.5604 78.182 46.169 78.0053 46.1864C77.8286 46.2037 57.0016 47.4389 55.3642 46.1864C53.7269 44.9339 55.9455 40.7081 55.9455 40.7081H55.945Z" fill="#E4F3FF" stroke="#E1F2FF" style="fill:#E4F3FF;fill:color(display-p3 0.8941 0.9529 1.0000);fill-opacity:1;stroke:#E1F2FF;stroke:color(display-p3 0.8824 0.9490 1.0000);stroke-opacity:1;" stroke-width="0.375" stroke-miterlimit="10"/>
<path d="M55.9441 40.7081C56.2609 40.0743 59.0608 35.5317 60.1698 35.5317C61.2789 35.5317 67.1425 32.5739 68.0931 32.7848C69.0437 32.9962 72.6888 33.1547 73.5339 33.8939C74.3791 34.6336 77.1784 36.6407 77.4958 37.6968C77.8126 38.7534 79.45 41.7642 79.503 42.6623C79.5559 43.5604 78.1811 46.169 78.0043 46.1864C77.8276 46.2037 57.0006 47.4389 55.3633 46.1864C53.7259 44.9339 55.9445 40.7081 55.9445 40.7081H55.9441Z" fill="#9DBBDF" style="fill:#9DBBDF;fill:color(display-p3 0.6157 0.7333 0.8745);fill-opacity:1;"/>
<path d="M33.7933 42.3262C33.3728 42.1223 34.915 36.6295 36.8378 35.565C38.7611 34.5005 44.7935 32.2434 45.7872 32.3076C46.781 32.3719 52.2456 35.5195 52.3872 37.3162C52.5292 39.1134 54.8003 43.357 54.3742 43.6125C53.9481 43.8679 52.135 46.4165 49.9937 46.1967C47.8525 45.9768 39.3995 45.0421 33.7933 42.3262Z" fill="#E4F3FF" stroke="#E1F2FF" style="fill:#E4F3FF;fill:color(display-p3 0.8941 0.9529 1.0000);fill-opacity:1;stroke:#E1F2FF;stroke:color(display-p3 0.8824 0.9490 1.0000);stroke-opacity:1;" stroke-width="0.375" stroke-miterlimit="10"/>
<path d="M33.7943 42.3262C33.3738 42.1223 34.916 36.6295 36.8388 35.565C38.7621 34.5004 44.7944 32.2434 45.7882 32.3076C46.7819 32.3718 52.2466 35.5195 52.3882 37.3162C52.5302 39.1134 54.8013 43.357 54.3752 43.6125C53.9491 43.8679 52.136 46.4165 49.9947 46.1967C47.8535 45.9768 39.4005 45.0421 33.7943 42.3262Z" fill="#9DBBDF" style="fill:#9DBBDF;fill:color(display-p3 0.6157 0.7333 0.8745);fill-opacity:1;"/>
<path d="M34.126 40.177C34.6627 38.4473 35.6817 36.2053 36.8381 35.565C38.7614 34.5005 44.7938 32.2434 45.7876 32.3076C46.036 32.3236 46.5638 32.5322 47.2182 32.8645" stroke="#91B3DB" style="stroke:#91B3DB;stroke:color(display-p3 0.5686 0.7020 0.8588);stroke-opacity:1;" stroke-width="0.28125" stroke-miterlimit="10"/>
<path d="M41.6845 44.9329C41.6845 44.9329 39.5878 39.7457 39.9047 39.1457C40.2216 38.5457 42.7823 36.7166 44.3184 36.2774C45.8545 35.8382 48.7814 32.6924 49.9519 32.6193C51.1223 32.5462 54.5466 32.3999 54.7734 32.9118C55.0003 33.4242 59.317 35.8382 59.317 36.4237C59.317 37.0092 60.9267 40.0818 60.4144 40.7404C59.902 41.399 61.0729 43.4817 60.9998 44.0132C60.9267 44.5448 59.3325 46.7427 57.6482 46.6799C55.964 46.6171 46.5862 46.5646 41.6841 44.9329H41.6845Z" fill="#F0C5C4" stroke="#EEBEBD" style="fill:#F0C5C4;fill:color(display-p3 0.9412 0.7725 0.7686);fill-opacity:1;stroke:#EEBEBD;stroke:color(display-p3 0.9333 0.7451 0.7412);stroke-opacity:1;" stroke-width="0.375" stroke-miterlimit="10"/>
<path d="M41.6845 44.9329C41.6845 44.9329 39.5878 39.7457 39.9047 39.1457C40.2216 38.5457 42.7823 36.7167 44.3184 36.2774C45.8545 35.8382 48.7814 32.6924 49.9519 32.6193C51.1223 32.5462 54.5466 32.3999 54.7734 32.9118C55.0003 33.4242 59.317 35.8382 59.317 36.4237C59.317 37.0092 60.9267 40.0818 60.4144 40.7404C59.902 41.399 61.0729 43.4817 60.9998 44.0132C60.9267 44.5448 59.3325 46.7427 57.6482 46.6799C55.964 46.6171 46.5862 46.5646 41.6841 44.9329H41.6845Z" fill="#D38989" style="fill:#D38989;fill:color(display-p3 0.8275 0.5373 0.5373);fill-opacity:1;"/>
<path d="M74.7014 46.747C73.8872 46.77 73.6477 41.6278 74.3916 40.8839C75.1355 40.14 78.2354 34.3743 80.6532 34.2501C83.071 34.1259 88.7129 32.5378 89.829 32.774C90.9451 33.0103 94.9589 35.7379 95.6175 36.4818C96.2761 37.2257 97.8886 40.0157 97.7644 40.8215C97.6402 41.6273 96.3605 42.997 96.3605 42.997C96.3605 42.997 86.9208 46.4039 74.7014 46.7465V46.747Z" fill="#FFDB9A" stroke="#FFD68D" style="fill:#FFDB9A;fill:color(display-p3 1.0000 0.8588 0.6039);fill-opacity:1;stroke:#FFD68D;stroke:color(display-p3 1.0000 0.8392 0.5529);stroke-opacity:1;" stroke-width="0.375" stroke-miterlimit="10"/>
<path d="M74.7024 46.7471C73.8882 46.77 73.6487 41.6278 74.3926 40.8839C75.1365 40.14 78.2363 34.3744 80.6542 34.2502C83.072 34.1259 88.7138 32.5378 89.8299 32.7741C90.946 33.0103 94.9599 35.738 95.6185 36.4819C96.2771 37.2258 97.8896 40.0158 97.7654 40.8216C97.6412 41.6274 96.3615 42.9971 96.3615 42.9971C96.3615 42.9971 86.9218 46.4039 74.7024 46.7466V46.7471Z" fill="#FFA269" style="fill:#FFA269;fill:color(display-p3 1.0000 0.6353 0.4118);fill-opacity:1;"/>
<path d="M98.5988 40.582C98.7122 40.7812 98.7704 40.9833 98.7704 41.1881C98.7704 44.4609 83.874 47.1135 65.4985 47.1135C52.2254 47.1135 40.7673 45.7293 35.4277 43.7273" stroke="#475B43" style="stroke:#475B43;stroke:color(display-p3 0.2784 0.3569 0.2627);stroke-opacity:1;" stroke-width="0.28125" stroke-miterlimit="10"/>
<path d="M94.0469 36.4753C93.798 37.0561 93.6738 38.7562 92.305 38.8809C90.9363 39.0051 89.1114 36.5582 88.2822 36.7242C87.4525 36.8901 84.6241 38.9039 85.188 40.9036C85.7524 42.9037 88.4481 44.0868 90.107 43.8478" stroke="#FF9757" style="stroke:#FF9757;stroke:color(display-p3 1.0000 0.5922 0.3412);stroke-opacity:1;" stroke-width="0.28125" stroke-miterlimit="10"/>
<path d="M76.583 39.645C77.0672 39.3961 80.355 37.7198 81.5231 38.1295C82.6917 38.5392 84.1069 41.1468 83.6972 41.8917C83.2875 42.6365 82.2816 44.5734 82.2816 44.5734" stroke="#FF9757" style="stroke:#FF9757;stroke:color(display-p3 1.0000 0.5922 0.3412);stroke-opacity:1;" stroke-width="0.28125" stroke-miterlimit="10"/>
<path d="M74.4227 37.4536C73.8752 37.3209 71.9594 36.891 71.4119 36.9299C70.8644 36.9689 68.9487 39.3614 68.7138 39.6122C68.479 39.8629 68.9876 43.0298 69.2219 43.1864" stroke="#91B3DB" style="stroke:#91B3DB;stroke:color(display-p3 0.5686 0.7020 0.8588);stroke-opacity:1;" stroke-width="0.28125" stroke-miterlimit="10"/>
<path d="M67.1331 39.7608C67.1331 39.7608 64.8493 37.7381 64.1593 37.7803C63.4693 37.8229 61.1748 38.7703 61.1748 38.7703" stroke="#91B3DB" style="stroke:#91B3DB;stroke:color(display-p3 0.5686 0.7020 0.8588);stroke-opacity:1;" stroke-width="0.28125" stroke-miterlimit="10"/>
<path d="M43.0791 40.0823C43.56 38.497 45.0535 38.2931 45.7346 38.2701C46.4157 38.2472 48.0521 38.3306 48.855 38.7815C49.3735 39.0731 49.6458 39.3075 49.8066 39.6122" stroke="#CE7A7A" style="stroke:#CE7A7A;stroke:color(display-p3 0.8078 0.4784 0.4784);stroke-opacity:1;" stroke-width="0.28125" stroke-miterlimit="10"/>
<path d="M51.1589 39.3238C50.7488 37.9171 53.2111 36.3262 54.1617 36.2507C55.1124 36.1753 57.3638 36.367 57.3483 37.2121C57.3408 37.6349 57.5348 37.9771 57.7425 38.2917" stroke="#CE7A7A" style="stroke:#CE7A7A;stroke:color(display-p3 0.8078 0.4784 0.4784);stroke-opacity:1;" stroke-width="0.28125" stroke-miterlimit="10"/>
<path d="M48.749 44.5734C48.6464 43.9223 48.5662 41.9672 50.3489 41.1881C52.1315 40.409 54.1106 40.6982 54.7622 40.904C55.4137 41.1098 57.5699 42.8521 57.7068 43.2928" stroke="#CE7A7A" style="stroke:#CE7A7A;stroke:color(display-p3 0.8078 0.4784 0.4784);stroke-opacity:1;" stroke-width="0.28125" stroke-miterlimit="10"/>
<path d="M79.4823 33.3937C79.6497 32.7876 78.3203 31.3861 77.8168 31.0987C77.3139 30.8114 73.5765 30.8831 72.9653 31.0987C72.3545 31.3143 71.995 31.1156 71.8154 31.8797" stroke="#CE7A7A" style="stroke:#CE7A7A;stroke:color(display-p3 0.8078 0.4784 0.4784);stroke-opacity:1;" stroke-width="0.28125" stroke-miterlimit="10"/>
<path d="M62.6033 33.426C62.6033 32.6353 61.6156 32.4942 61.1749 32.1515C60.7343 31.8089 59.2999 30.9103 58.5439 30.9464C57.7878 30.9825 56.1706 31.7971 56.2066 32.3062" stroke="#FF9757" style="stroke:#FF9757;stroke:color(display-p3 1.0000 0.5922 0.3412);stroke-opacity:1;" stroke-width="0.28125" stroke-miterlimit="10"/>
</svg>
