<svg width="40" height="40" viewBox="0 0 40 40" fill="none" xmlns="http://www.w3.org/2000/svg">
<g clip-path="url(#clip0_138_8724)">
<path d="M33.9976 20.5639C33.48 20.7857 33.5167 21.2763 33.8016 21.8074C33.8357 21.879 33.8758 21.9478 33.8612 22.0318C33.6769 22.0212 33.5591 22.1406 33.4407 22.2531C32.9378 22.7517 32.3299 23.1272 31.6277 23.2667C32.2539 23.3545 32.8266 23.5611 33.3129 23.9725C33.0541 24.2321 32.8466 24.5379 32.93 24.9229C33.208 25.9417 32.9148 27.2618 31.7034 27.4129C28.1757 27.3067 23.3629 26.5986 22.0635 22.7227C21.5355 25.3804 25.1421 27.6122 25.9081 30.0435C25.5479 31.7181 24.8503 33.4603 24.9956 35.201C25.034 35.6616 24.6405 36.0437 24.1825 35.996C20.5287 35.6144 16.4049 34.1327 14.3506 32.3534C15.8856 29.9748 16.9778 27.1789 16.8414 24.3316C17.8319 23.1738 18.3601 21.7309 18.4432 20.2051L18.4452 20.2045C21.3719 24.2197 23.3867 21.3171 21.6837 20.6801C20.6941 19.0579 21.7043 18.3069 20.9942 16.7679C20.9999 16.761 21.0053 16.7552 21.0119 16.7498C21.4146 16.8513 22.2781 16.7334 22.5051 16.6514C22.3942 17.4645 22.1362 18.178 21.4857 18.7388C24.0241 17.8921 23.6245 15.7105 24.5603 15.1656C25.3547 14.7648 26.0844 14.2503 26.7711 13.6849C26.2813 14.5973 25.6906 15.4239 24.8893 16.0854C27.2655 14.7976 29.8735 10.7573 30.3389 8.09647C32.2155 9.584 32.8375 12.0593 32.9123 14.3496C31.6312 16.2112 33.907 17.8175 34.8373 19.257C35.3649 19.9107 34.4851 20.3124 33.9979 20.5639H33.9976Z" fill="#EFAE94" style="fill:#EFAE94;fill:color(display-p3 0.9373 0.6824 0.5804);fill-opacity:1;"/>
<path d="M16.8408 24.3316C17.7261 23.1189 18.3002 21.7499 18.4208 20.2148C18.4283 20.2108 18.4357 20.2077 18.4426 20.2054C18.3595 21.7312 17.8313 23.1738 16.8408 24.3316Z" fill="#EFAE94" style="fill:#EFAE94;fill:color(display-p3 0.9373 0.6824 0.5804);fill-opacity:1;"/>
<path d="M18.4443 20.2045C18.5378 20.1723 18.5776 20.262 18.6209 20.3156C19.2216 21.0697 19.8753 21.8408 20.7996 22.1984C21.7789 22.6174 22.9402 21.358 21.7754 20.752C21.6247 20.721 21.5711 20.5095 21.4983 20.405C20.7672 19.3218 21.5473 18.1579 21.0452 17.0833C20.9532 16.942 20.9435 16.8329 20.9933 16.7682C21.7035 18.3072 20.6933 19.0576 21.6829 20.6801C23.3838 21.3122 21.3765 24.2237 18.4443 20.2045Z" fill="#EFAE94" style="fill:#EFAE94;fill:color(display-p3 0.9373 0.6824 0.5804);fill-opacity:1;"/>
<path d="M22.0715 22.8003C21.6677 25.4137 25.3038 27.6819 25.9076 30.0435C25.1398 27.6085 21.537 25.3853 22.0629 22.7227C22.8531 25.3297 25.6147 26.6156 28.0966 27.0069C25.6242 26.7335 22.7938 25.353 22.0715 22.8003Z" fill="#EFAE94" style="fill:#EFAE94;fill:color(display-p3 0.9373 0.6824 0.5804);fill-opacity:1;"/>
<path d="M32.912 14.3496C32.8372 12.0593 32.2153 9.584 30.3387 8.09647C29.8733 10.7553 27.2693 14.7941 24.8891 16.0854C25.6904 15.4239 26.2811 14.5973 26.7709 13.6849C26.0842 14.2503 25.3545 14.7648 24.5601 15.1656C23.6243 15.7105 24.0238 17.8921 21.4855 18.7388C22.136 18.178 22.394 17.4645 22.5049 16.6514C22.2779 16.7334 21.4144 16.8514 21.0117 16.7498C21.0702 16.6971 21.1797 16.6856 21.3204 16.7242C21.6652 16.7768 21.997 16.7084 22.3309 16.6514C22.5301 16.6174 22.5599 16.6321 22.527 16.8217C22.4063 17.5128 22.1799 18.1542 21.6557 18.6312C24.0107 17.7114 23.5618 15.7186 24.5374 15.1279C25.2757 14.7397 25.9753 14.2894 26.6124 13.7465C26.6608 13.7054 26.7147 13.6332 26.7826 13.693C26.8402 13.7439 26.7852 13.8072 26.7562 13.857C26.2762 14.6528 25.7426 15.4605 24.9922 16.0216C27.3827 14.3884 29.6337 11.1127 30.2599 8.27169C30.3017 8.0464 30.3639 8.0254 30.5367 8.1894C32.2274 9.72355 32.9794 12.1027 32.912 14.3499V14.3496Z" fill="#EFAE94" style="fill:#EFAE94;fill:color(display-p3 0.9373 0.6824 0.5804);fill-opacity:1;"/>
<path d="M33.3131 23.9725C32.8268 23.5611 32.2541 23.3545 31.6279 23.2668C32.3301 23.1272 32.938 22.7517 33.4409 22.2531C33.5593 22.1406 33.6771 22.0212 33.8614 22.0318C33.5622 22.1461 33.3724 22.4044 33.1303 22.5938C32.7236 22.9085 32.2229 23.2363 31.7013 23.2575C32.2507 23.3329 32.9557 23.5041 33.3131 23.9725Z" fill="#EFAE94" style="fill:#EFAE94;fill:color(display-p3 0.9373 0.6824 0.5804);fill-opacity:1;"/>
<path d="M33.8301 13.9669C34.1671 12.3398 34.1338 10.7714 33.1368 9.34893C33.5899 10.9651 33.8309 12.8474 32.9118 14.3496C32.837 12.0593 32.2151 9.584 30.3385 8.09646C29.873 10.7553 27.269 14.7941 24.8888 16.0854C25.6902 15.4239 26.2808 14.5973 26.7706 13.6849C26.0839 14.2503 25.3543 14.7648 24.5598 15.1656C23.6241 15.7105 24.0236 17.892 21.4852 18.7388C22.1358 18.178 22.3937 17.4645 22.5046 16.6514C22.2352 16.7124 21.1485 16.9664 20.8111 16.6243C19.6487 15.1834 17.2253 16.3277 17.6746 18.1542C17.7686 18.8027 18.0587 19.3822 18.3937 19.9383C18.4421 20.0189 18.5181 20.0977 18.443 20.2028C18.357 21.8183 17.7621 23.3533 16.6601 24.5342C16.4858 23.2221 15.5951 22.3293 14.7786 21.3962C12.2199 18.5504 11.3002 14.7886 11.982 11.0925C12.3004 10.183 12.35 9.19298 12.5965 8.2596C13.3594 5.72331 15.6329 3.83699 18.1951 3.25406C22.1283 2.61905 27.2323 3.03798 30.1158 6.0798C33.3013 7.24883 35.3496 10.7053 33.8301 13.9669Z" fill="#713E21" style="fill:#713E21;fill:color(display-p3 0.4431 0.2431 0.1294);fill-opacity:1;"/>
<path d="M10.9969 30.4858C10.5495 31.4905 9.65795 32.3142 8.4766 32.1243C10.7894 31.3437 10.6957 28.1722 9.99269 26.2691C9.93308 27.7052 9.78778 29.6496 8.56888 30.5919C11.0786 25.3999 5.58112 21.1948 5.16269 16.2359C4.21979 11.9364 7.45575 3.67816 12.7856 6.96743C12.2657 7.53425 12.0204 8.28809 11.808 9.01747C11.7768 9.13112 11.7406 9.23815 11.6489 9.31901C7.75925 12.8422 11.0468 18.0002 12.0037 21.989C10.8725 20.397 9.9947 18.4356 9.00652 16.6899C9.75339 21.2633 12.5196 25.7797 10.9966 30.4858H10.9969Z" fill="#713E21" style="fill:#713E21;fill:color(display-p3 0.4431 0.2431 0.1294);fill-opacity:1;"/>
<path d="M10.9968 30.4858C12.422 25.702 9.64804 21.2164 8.9668 16.5582C9.94352 18.3826 10.9595 20.1835 11.9772 21.9832C11.9915 21.9766 12.0059 21.97 12.0202 21.9634C10.8128 17.9933 7.83818 12.8301 11.5593 9.33972C11.7777 9.19068 11.7628 8.93748 11.8365 8.72601C12.0047 8.31974 12.4759 6.59195 13.0806 7.02843C13.0425 7.25401 12.9063 7.4393 12.8264 7.64848C12.6435 8.12696 12.5719 8.63192 12.4638 9.12767C12.3443 9.45136 12.2197 11.0488 11.9812 11.0931C11.6155 10.7553 11.3005 13.2056 11.2753 13.4585C10.8079 16.9405 13.4156 19.7787 13.8616 23.1378C14.5855 26.2001 13.4784 30.3146 10.384 31.5872C13.3397 29.2839 12.4796 24.8302 11.169 21.8011C11.4722 24.2594 12.3019 28.3316 10.9962 30.486L10.9968 30.4858Z" fill="#53321F" style="fill:#53321F;fill:color(display-p3 0.3255 0.1961 0.1216);fill-opacity:1;"/>
<path d="M28.0966 27.0069C26.8001 27.3769 26.3117 28.8915 25.9076 30.0435C25.1398 27.6085 21.537 25.3853 22.0629 22.7227C22.8531 25.3297 25.6147 26.6156 28.0966 27.0069Z" fill="#CE876D" style="fill:#CE876D;fill:color(display-p3 0.8078 0.5294 0.4275);fill-opacity:1;"/>
<path d="M11.149 30.2288C12.0828 28.0786 11.4445 23.9584 11.0949 21.5971C12.4639 24.3825 13.5043 29.3654 10.5254 31.4001C10.7853 31.0434 11.0347 30.6581 11.1493 30.2288H11.149Z" fill="#673E28" style="fill:#673E28;fill:color(display-p3 0.4039 0.2431 0.1569);fill-opacity:1;"/>
<path d="M33.3131 23.9725C32.8268 23.5611 32.2541 23.3545 31.6279 23.2668C32.3301 23.1272 32.938 22.7517 33.4409 22.2531C33.5593 22.1406 33.6771 22.0212 33.8614 22.0318C33.8854 22.3501 33.6963 22.5587 33.4742 22.7307C33.0431 23 34.1124 23.1666 33.3131 23.9725Z" fill="#DB937C" style="fill:#DB937C;fill:color(display-p3 0.8588 0.5765 0.4863);fill-opacity:1;"/>
<path d="M20.2752 21.9895C19.5189 21.5436 19.0205 20.8343 18.4427 20.2028C18.4479 20.1058 18.398 20.0313 18.3498 19.9527C18.0122 19.3992 17.7431 18.818 17.6256 18.1729C17.1851 16.0639 19.8622 15.1354 20.9931 16.7555C21.6706 18.1125 20.7604 18.9915 21.5741 20.4611C21.2872 20.3622 21.0705 20.1308 20.853 19.93C20.456 19.575 20.8289 19.1178 20.8825 18.6997C21.1702 16.6698 18.0512 15.6737 18.1876 18.2494C18.3917 17.0752 19.5533 16.7553 20.256 17.7534C20.7154 18.6108 19.2667 18.3061 19.2959 19.5755C19.2469 20.2261 21.1679 20.3794 21.683 20.6801C23.232 21.3007 21.6552 23.034 20.2752 21.9895Z" fill="#EDB197" style="fill:#EDB197;fill:color(display-p3 0.9294 0.6941 0.5922);fill-opacity:1;"/>
<path d="M21.683 20.6801C21.0029 20.5434 20.338 20.3345 19.6874 20.092C19.2991 19.9372 19.1994 19.7565 19.2722 19.3462C19.4089 18.3291 20.3225 18.5947 20.2993 17.9936C20.1706 17.4101 19.4097 17.0528 18.8847 17.2821C18.4247 17.4849 18.2728 17.991 18.1974 18.4502C18.1808 18.4502 18.1642 18.4502 18.1476 18.4505C17.84 15.7738 20.9204 16.309 20.953 18.5161C20.8026 19.7407 20.2744 19.4938 21.4984 20.405C21.5228 20.4235 21.5483 20.4419 21.5741 20.4611C21.585 20.5469 21.6948 20.5831 21.683 20.6801Z" fill="#CE886E" style="fill:#CE886E;fill:color(display-p3 0.8078 0.5333 0.4314);fill-opacity:1;"/>
<path d="M14.2754 14.3093C16.1709 15.7963 18.2708 15.028 20.3346 14.4261C23.6485 13.7344 26.264 11.7932 28.2475 9.19846C28.2939 9.22982 28.2564 9.26089 28.2372 9.28909C26.6449 11.979 24.2323 14.6678 20.9665 15.0778C18.7532 15.1742 15.8975 16.4422 14.2757 14.3093H14.2754Z" fill="#935A41" style="fill:#935A41;fill:color(display-p3 0.5765 0.3529 0.2549);fill-opacity:1;"/>
<path d="M29.0931 6.89177C25.3396 6.13793 21.464 5.37057 17.6299 5.88732C21.4852 4.67456 25.6617 4.32181 29.0931 6.89177Z" fill="#935A41" style="fill:#935A41;fill:color(display-p3 0.5765 0.3529 0.2549);fill-opacity:1;"/>
<path d="M26.125 8.75305C24.8743 9.98912 23.1616 10.6244 21.6716 11.5201C18.9673 13.0203 14.8062 15.3152 12.8086 11.6312C17.082 14.6045 22.2923 10.9047 26.1253 8.75305H26.125Z" fill="#935A41" style="fill:#935A41;fill:color(display-p3 0.5765 0.3529 0.2549);fill-opacity:1;"/>
<path d="M22.6072 9.43065C20.0751 10.5585 16.6935 11.1783 14.3438 9.3403C15.17 9.55494 16.0117 9.4528 16.8538 9.48301C18.7688 9.53221 20.7168 9.71175 22.6072 9.43065Z" fill="#935A41" style="fill:#935A41;fill:color(display-p3 0.5765 0.3529 0.2549);fill-opacity:1;"/>
</g>
<defs>
<clipPath id="clip0_138_8724">
<rect width="30" height="33" fill="white" style="fill:white;fill-opacity:1;" transform="translate(5 3)"/>
</clipPath>
</defs>
</svg>
